<svg id="visual" viewBox="0 0 900 600" width="900" height="600" xmlns="http://www.w3.org/2000/svg" xmlns:xlink="http://www.w3.org/1999/xlink" version="1.1">
    <g>
        <g transform="translate(609 69)">
            <path d="M0 -13.1L10.3 -8.2L12.8 2.9L5.7 11.8L-5.7 11.8L-12.8 2.9L-10.3 -8.2Z" stroke="#23138F" fill="none" stroke-width="2"></path>
        </g>
        <g transform="translate(709 260)">
            <path d="M0 -4L3.1 -2.5L3.9 0.9L1.7 3.6L-1.7 3.6L-3.9 0.9L-3.1 -2.5Z" stroke="#23138F" fill="none" stroke-width="2"></path>
        </g>
        <g transform="translate(751 577)">
            <path d="M0 -9L7 -5.6L8.8 2L3.9 8.1L-3.9 8.1L-8.8 2L-7 -5.6Z" stroke="#23138F" fill="none" stroke-width="2"></path>
        </g>
        <g transform="translate(509 280)">
            <path d="M0 -1L0.8 -0.6L1 0.2L0.4 0.9L-0.4 0.9L-1 0.2L-0.8 -0.6Z" stroke="#23138F" fill="none" stroke-width="2"></path>
        </g>
        <g transform="translate(105 178)">
            <path d="M0 -4L3.1 -2.5L3.9 0.9L1.7 3.6L-1.7 3.6L-3.9 0.9L-3.1 -2.5Z" stroke="#23138F" fill="none" stroke-width="2"></path>
        </g>
        <g transform="translate(713 106)">
            <path d="M0 -12L9.4 -7.5L11.7 2.7L5.2 10.8L-5.2 10.8L-11.7 2.7L-9.4 -7.5Z" stroke="#23138F" fill="none" stroke-width="2"></path>
        </g>
        <g transform="translate(392 9)">
            <path d="M0 -2L1.6 -1.2L1.9 0.4L0.9 1.8L-0.9 1.8L-1.9 0.4L-1.6 -1.2Z" stroke="#23138F" fill="none" stroke-width="2"></path>
        </g>
        <g transform="translate(296 225)">
            <path d="M0 -9L7 -5.6L8.8 2L3.9 8.1L-3.9 8.1L-8.8 2L-7 -5.6Z" stroke="#23138F" fill="none" stroke-width="2"></path>
        </g>
        <g transform="translate(806 194)">
            <path d="M0 -3L2.3 -1.9L2.9 0.7L1.3 2.7L-1.3 2.7L-2.9 0.7L-2.3 -1.9Z" stroke="#23138F" fill="none" stroke-width="2"></path>
        </g>
        <g transform="translate(842 513)">
            <path d="M0 -9L7 -5.6L8.8 2L3.9 8.1L-3.9 8.1L-8.8 2L-7 -5.6Z" stroke="#23138F" fill="none" stroke-width="2"></path>
        </g>
        <g transform="translate(437 65)">
            <path d="M0 -2L1.6 -1.2L1.9 0.4L0.9 1.8L-0.9 1.8L-1.9 0.4L-1.6 -1.2Z" stroke="#23138F" fill="none" stroke-width="2"></path>
        </g>
        <g transform="translate(353 11)">
            <path d="M0 -1L0.8 -0.6L1 0.2L0.4 0.9L-0.4 0.9L-1 0.2L-0.8 -0.6Z" stroke="#23138F" fill="none" stroke-width="2"></path>
        </g>
        <g transform="translate(258 161)">
            <path d="M0 -7L5.5 -4.4L6.8 1.6L3 6.3L-3 6.3L-6.8 1.6L-5.5 -4.4Z" stroke="#23138F" fill="none" stroke-width="2"></path>
        </g>
        <g transform="translate(392 229)">
            <path d="M0 -3L2.3 -1.9L2.9 0.7L1.3 2.7L-1.3 2.7L-2.9 0.7L-2.3 -1.9Z" stroke="#23138F" fill="none" stroke-width="2"></path>
        </g>
        <g transform="translate(342 565)">
            <path d="M0 -10L7.8 -6.2L9.7 2.2L4.3 9L-4.3 9L-9.7 2.2L-7.8 -6.2Z" stroke="#23138F" fill="none" stroke-width="2"></path>
        </g>
        <g transform="translate(522 117)">
            <path d="M0 -11L8.6 -6.9L10.7 2.4L4.8 9.9L-4.8 9.9L-10.7 2.4L-8.6 -6.9Z" stroke="#23138F" fill="none" stroke-width="2"></path>
        </g>
        <g transform="translate(493 405)">
            <path d="M0 -10L7.8 -6.2L9.7 2.2L4.3 9L-4.3 9L-9.7 2.2L-7.8 -6.2Z" stroke="#23138F" fill="none" stroke-width="2"></path>
        </g>
        <g transform="translate(397 92)">
            <path d="M0 -1L0.8 -0.6L1 0.2L0.4 0.9L-0.4 0.9L-1 0.2L-0.8 -0.6Z" stroke="#23138F" fill="none" stroke-width="2"></path>
        </g>
        <g transform="translate(733 276)">
            <path d="M0 -3L2.3 -1.9L2.9 0.7L1.3 2.7L-1.3 2.7L-2.9 0.7L-2.3 -1.9Z" stroke="#23138F" fill="none" stroke-width="2"></path>
        </g>
        <g transform="translate(504 443)">
            <path d="M0 -2L1.6 -1.2L1.9 0.4L0.9 1.8L-0.9 1.8L-1.9 0.4L-1.6 -1.2Z" stroke="#23138F" fill="none" stroke-width="2"></path>
        </g>
        <g transform="translate(229 38)">
            <path d="M0 -3L2.3 -1.9L2.9 0.7L1.3 2.7L-1.3 2.7L-2.9 0.7L-2.3 -1.9Z" stroke="#23138F" fill="none" stroke-width="2"></path>
        </g>
        <g transform="translate(681 77)">
            <path d="M0 -7L5.5 -4.4L6.8 1.6L3 6.3L-3 6.3L-6.8 1.6L-5.5 -4.4Z" stroke="#23138F" fill="none" stroke-width="2"></path>
        </g>
        <g transform="translate(706 498)">
            <path d="M0 -4L3.1 -2.5L3.9 0.9L1.7 3.6L-1.7 3.6L-3.9 0.9L-3.1 -2.5Z" stroke="#23138F" fill="none" stroke-width="2"></path>
        </g>
        <g transform="translate(787 132)">
            <path d="M0 -1L0.8 -0.6L1 0.2L0.4 0.9L-0.4 0.9L-1 0.2L-0.8 -0.6Z" stroke="#23138F" fill="none" stroke-width="2"></path>
        </g>
        <g transform="translate(625 336)">
            <path d="M0 -9L7 -5.6L8.8 2L3.9 8.1L-3.9 8.1L-8.8 2L-7 -5.6Z" stroke="#23138F" fill="none" stroke-width="2"></path>
        </g>
        <g transform="translate(821 325)">
            <path d="M0 -8L6.3 -5L7.8 1.8L3.5 7.2L-3.5 7.2L-7.8 1.8L-6.3 -5Z" stroke="#23138F" fill="none" stroke-width="2"></path>
        </g>
        <g transform="translate(58 517)">
            <path d="M0 -2L1.6 -1.2L1.9 0.4L0.9 1.8L-0.9 1.8L-1.9 0.4L-1.6 -1.2Z" stroke="#23138F" fill="none" stroke-width="2"></path>
        </g>
    </g>
</svg>