<svg id="visual" viewBox="0 0 900 250" width="900" height="250" xmlns="http://www.w3.org/2000/svg" xmlns:xlink="http://www.w3.org/1999/xlink" version="1.1"><rect x="0" y="0" width="900" height="250" fill="#8F1313"></rect><path d="M0 139L12.5 134.8C25 130.7 50 122.3 75 120C100 117.7 125 121.3 150 126.8C175 132.3 200 139.7 225 141.3C250 143 275 139 300 130.2C325 121.3 350 107.7 375 100.3C400 93 425 92 450 94.7C475 97.3 500 103.7 525 111.8C550 120 575 130 600 130C625 130 650 120 675 115.3C700 110.7 725 111.3 750 117.2C775 123 800 134 825 140.8C850 147.7 875 150.3 887.5 151.7L900 153L900 0L887.5 0C875 0 850 0 825 0C800 0 775 0 750 0C725 0 700 0 675 0C650 0 625 0 600 0C575 0 550 0 525 0C500 0 475 0 450 0C425 0 400 0 375 0C350 0 325 0 300 0C275 0 250 0 225 0C200 0 175 0 150 0C125 0 100 0 75 0C50 0 25 0 12.5 0L0 0Z" fill="#000A1A" stroke-linecap="round" stroke-linejoin="miter"></path></svg>